<svg width="600" height="600" viewBox="0 0 600 600" xmlns="http://www.w3.org/2000/svg">
  <defs>
    <linearGradient id="bgGrad2" x1="0%" y1="0%" x2="100%" y2="100%">
      <stop offset="0%" style="stop-color:#12121a"/>
      <stop offset="100%" style="stop-color:#1a1a25"/>
    </linearGradient>
    <radialGradient id="eyeGlow" cx="50%" cy="50%" r="50%">
      <stop offset="0%" style="stop-color:#76b900"/>
      <stop offset="100%" style="stop-color:#00d4aa"/>
    </radialGradient>
    <filter id="glow2">
      <feGaussianBlur stdDeviation="4" result="coloredBlur"/>
      <feMerge>
        <feMergeNode in="coloredBlur"/>
        <feMergeNode in="SourceGraphic"/>
      </feMerge>
    </filter>
  </defs>
  <rect width="600" height="600" fill="url(#bgGrad2)"/>
  <g transform="translate(300, 300)">
    <circle cx="0" cy="-20" r="120" fill="none" stroke="#2a2a3a" stroke-width="2"/>
    <circle cx="0" cy="-20" r="100" fill="none" stroke="#3a3a4a" stroke-width="1"/>
    <circle cx="0" cy="-20" r="80" fill="#0a0a0f"/>
    <ellipse cx="-25" cy="-30" rx="20" ry="15" fill="url(#eyeGlow)" filter="url(#glow2)"/>
    <ellipse cx="25" cy="-30" rx="20" ry="15" fill="url(#eyeGlow)" filter="url(#glow2)"/>
    <rect x="-40" y="20" width="80" height="4" rx="2" fill="#2a2a3a"/>
    <rect x="-30" y="35" width="60" height="4" rx="2" fill="#2a2a3a"/>
    <rect x="-20" y="50" width="40" height="4" rx="2" fill="#2a2a3a"/>
    <g stroke="#76b900" stroke-width="1" opacity="0.3">
      <line x1="-150" y1="-150" x2="-130" y2="-130"/>
      <line x1="150" y1="-150" x2="130" y2="-130"/>
      <line x1="-150" y1="150" x2="-130" y2="130"/>
      <line x1="150" y1="150" x2="130" y2="130"/>
    </g>
  </g>
  <text x="300" y="550" font-family="-apple-system, BlinkMacSystemFont, sans-serif" font-size="12" fill="#505060" text-anchor="middle">Placeholder - AI Image Generation Quota Exceeded</text>
</svg>